<svg xmlns="http://www.w3.org/2000/svg" xmlns:xlink="http://www.w3.org/1999/xlink" width="200" zoomAndPan="magnify" viewBox="0 0 150 37.5" height="50" preserveAspectRatio="xMidYMid meet" version="1.0"><defs><g/><clipPath id="89f5a86205"><path d="M 21 0 L 35 0 L 35 17 L 21 17 Z M 21 0 " clip-rule="nonzero"/></clipPath><clipPath id="5dfceddbc4"><path d="M 16.289062 26.980469 L 24.554688 0.0976562 L 56.390625 9.886719 L 48.125 36.769531 Z M 16.289062 26.980469 " clip-rule="nonzero"/></clipPath><clipPath id="cbb42d5595"><path d="M 16.289062 26.980469 L 24.554688 0.0976562 L 56.390625 9.886719 L 48.125 36.769531 Z M 16.289062 26.980469 " clip-rule="nonzero"/></clipPath><clipPath id="af6eebdcf0"><path d="M 29 15 L 50 15 L 50 36 L 29 36 Z M 29 15 " clip-rule="nonzero"/></clipPath><clipPath id="e63cd29c93"><path d="M 16.289062 26.980469 L 24.554688 0.0976562 L 56.390625 9.886719 L 48.125 36.769531 Z M 16.289062 26.980469 " clip-rule="nonzero"/></clipPath><clipPath id="68a7e62df6"><path d="M 16.289062 26.980469 L 24.554688 0.0976562 L 56.390625 9.886719 L 48.125 36.769531 Z M 16.289062 26.980469 " clip-rule="nonzero"/></clipPath><clipPath id="81d5e82751"><path d="M 67.800781 12.832031 L 102.234375 12.832031 L 102.234375 20.691406 L 67.800781 20.691406 Z M 67.800781 12.832031 " clip-rule="nonzero"/></clipPath></defs><g fill="#000000" fill-opacity="1"><g transform="translate(37.597597, 22.683648)"><g><path d="M 4.546875 -15.140625 C 4.503906 -15.160156 4.519531 -15.175781 4.59375 -15.1875 C 4.695312 -15.195312 5.015625 -15.203125 5.546875 -15.203125 C 6.078125 -15.203125 6.785156 -15.203125 7.671875 -15.203125 L 11.046875 -15.203125 L 11.203125 -14.765625 C 11.273438 -14.441406 11.410156 -13.96875 11.609375 -13.34375 C 11.734375 -12.945312 11.832031 -12.613281 11.90625 -12.34375 C 11.976562 -12.082031 12.03125 -11.875 12.0625 -11.71875 C 12.070312 -11.632812 12.179688 -11.242188 12.390625 -10.546875 C 12.609375 -9.878906 12.769531 -9.34375 12.875 -8.9375 C 13.039062 -8.375 13.195312 -7.832031 13.34375 -7.3125 C 13.488281 -6.789062 13.640625 -6.289062 13.796875 -5.8125 C 13.828125 -5.695312 13.863281 -5.5625 13.90625 -5.40625 C 13.945312 -5.25 14.003906 -5.066406 14.078125 -4.859375 C 14.140625 -4.648438 14.1875 -4.476562 14.21875 -4.34375 C 14.25 -4.21875 14.269531 -4.132812 14.28125 -4.09375 C 14.300781 -4.0625 14.320312 -3.992188 14.34375 -3.890625 C 14.363281 -3.785156 14.40625 -3.648438 14.46875 -3.484375 C 14.582031 -3.140625 14.648438 -2.898438 14.671875 -2.765625 C 14.679688 -2.722656 14.703125 -2.640625 14.734375 -2.515625 C 14.765625 -2.398438 14.796875 -2.273438 14.828125 -2.140625 C 14.867188 -2.015625 14.90625 -1.898438 14.9375 -1.796875 C 14.976562 -1.691406 15 -1.625 15 -1.59375 C 15.019531 -1.582031 15.078125 -1.410156 15.171875 -1.078125 C 15.179688 -1.015625 15.210938 -0.890625 15.265625 -0.703125 C 15.316406 -0.515625 15.375 -0.328125 15.4375 -0.140625 C 15.5 0.046875 15.550781 0.21875 15.59375 0.375 C 15.632812 0.53125 15.664062 0.613281 15.6875 0.625 C 15.6875 0.6875 15.707031 0.789062 15.75 0.9375 C 15.789062 1.09375 15.828125 1.191406 15.859375 1.234375 C 15.878906 1.328125 15.894531 1.40625 15.90625 1.46875 C 15.925781 1.539062 15.941406 1.597656 15.953125 1.640625 C 15.960938 1.660156 15.941406 1.675781 15.890625 1.6875 C 15.828125 1.695312 15.617188 1.703125 15.265625 1.703125 C 14.910156 1.703125 14.441406 1.703125 13.859375 1.703125 L 11.546875 1.703125 L 11.453125 1.4375 C 11.421875 1.363281 11.390625 1.269531 11.359375 1.15625 C 11.328125 1.039062 11.296875 0.910156 11.265625 0.765625 C 11.265625 0.734375 11.25 0.664062 11.21875 0.5625 C 11.195312 0.457031 11.160156 0.320312 11.109375 0.15625 C 11.054688 -0.0078125 11.007812 -0.160156 10.96875 -0.296875 C 10.925781 -0.441406 10.894531 -0.578125 10.875 -0.703125 L 10.59375 -1.78125 L 5.515625 -1.78125 L 5.46875 -1.625 C 5.332031 -1.144531 5.207031 -0.6875 5.09375 -0.25 C 4.976562 0.1875 4.878906 0.59375 4.796875 0.96875 L 4.59375 1.703125 L 2.296875 1.703125 C 1.691406 1.691406 1.210938 1.679688 0.859375 1.671875 C 0.515625 1.671875 0.34375 1.660156 0.34375 1.640625 C 0.769531 0.273438 1.175781 -1.085938 1.5625 -2.453125 C 1.957031 -3.828125 2.34375 -5.210938 2.71875 -6.609375 C 2.71875 -6.640625 2.75 -6.753906 2.8125 -6.953125 C 2.875 -7.160156 2.921875 -7.328125 2.953125 -7.453125 C 3.023438 -7.671875 3.085938 -7.890625 3.140625 -8.109375 C 3.203125 -8.335938 3.265625 -8.570312 3.328125 -8.8125 C 3.390625 -9.03125 3.453125 -9.265625 3.515625 -9.515625 C 3.585938 -9.773438 3.664062 -10.050781 3.75 -10.34375 C 3.769531 -10.394531 3.796875 -10.484375 3.828125 -10.609375 C 3.859375 -10.734375 3.890625 -10.867188 3.921875 -11.015625 C 3.960938 -11.160156 4 -11.296875 4.03125 -11.421875 C 4.070312 -11.546875 4.09375 -11.625 4.09375 -11.65625 C 4.125 -11.726562 4.15625 -11.816406 4.1875 -11.921875 C 4.21875 -12.023438 4.253906 -12.15625 4.296875 -12.3125 C 4.367188 -12.601562 4.414062 -12.773438 4.4375 -12.828125 C 4.46875 -12.898438 4.5 -13.023438 4.53125 -13.203125 C 4.570312 -13.390625 4.628906 -13.613281 4.703125 -13.875 C 4.816406 -14.238281 4.875 -14.46875 4.875 -14.5625 C 4.875 -14.832031 4.765625 -15.023438 4.546875 -15.140625 Z M 8.34375 -10.3125 C 8.164062 -11.03125 8.0625 -11.390625 8.03125 -11.390625 C 8 -11.296875 7.929688 -11.007812 7.828125 -10.53125 C 7.796875 -10.40625 7.757812 -10.242188 7.71875 -10.046875 C 7.675781 -9.847656 7.613281 -9.597656 7.53125 -9.296875 C 7.507812 -9.203125 7.457031 -8.988281 7.375 -8.65625 C 7.300781 -8.332031 7.21875 -7.988281 7.125 -7.625 C 7.007812 -7.207031 6.890625 -6.75 6.765625 -6.25 C 6.617188 -5.65625 6.546875 -5.332031 6.546875 -5.28125 C 6.546875 -5.257812 7.0625 -5.25 8.09375 -5.25 L 9.65625 -5.25 L 9.609375 -5.46875 C 9.484375 -5.945312 9.316406 -6.585938 9.109375 -7.390625 C 8.898438 -8.191406 8.644531 -9.164062 8.34375 -10.3125 Z M 8.34375 -10.3125 "/></g></g></g><g fill="#000000" fill-opacity="1"><g transform="translate(53.896686, 22.683648)"><g><path d="M 8.9375 -15.34375 L 9.296875 -15.34375 C 10.023438 -15.34375 10.734375 -15.238281 11.421875 -15.03125 C 12.117188 -14.832031 12.75 -14.535156 13.3125 -14.140625 C 13.882812 -13.753906 14.378906 -13.273438 14.796875 -12.703125 C 15.222656 -12.140625 15.535156 -11.488281 15.734375 -10.75 C 15.785156 -10.5 15.828125 -10.285156 15.859375 -10.109375 C 15.890625 -9.941406 15.90625 -9.804688 15.90625 -9.703125 L 15.90625 -9.5625 L 11.453125 -9.5625 L 11.359375 -9.78125 C 11.273438 -10.082031 11.140625 -10.390625 10.953125 -10.703125 C 10.765625 -11.023438 10.5625 -11.253906 10.34375 -11.390625 C 10.03125 -11.660156 9.601562 -11.820312 9.0625 -11.875 L 8.9375 -11.90625 Z M 7.921875 -15.328125 C 7.953125 -15.335938 8.039062 -15.34375 8.1875 -15.34375 L 8.34375 -15.34375 L 8.34375 -11.96875 L 8.125 -11.875 C 7.6875 -11.707031 7.296875 -11.40625 6.953125 -10.96875 C 6.609375 -10.53125 6.332031 -9.972656 6.125 -9.296875 C 6 -8.921875 5.914062 -8.488281 5.875 -8 C 5.832031 -7.507812 5.820312 -6.976562 5.84375 -6.40625 C 5.863281 -6.050781 5.898438 -5.640625 5.953125 -5.171875 C 6.015625 -4.710938 6.113281 -4.257812 6.25 -3.8125 C 6.382812 -3.375 6.566406 -2.96875 6.796875 -2.59375 C 7.035156 -2.226562 7.34375 -1.957031 7.71875 -1.78125 C 7.789062 -1.75 7.867188 -1.722656 7.953125 -1.703125 C 8.035156 -1.679688 8.113281 -1.65625 8.1875 -1.625 L 8.390625 -1.578125 L 8.390625 1.84375 L 8.03125 1.828125 C 5.988281 1.703125 4.390625 1.066406 3.234375 -0.078125 C 2.078125 -1.222656 1.367188 -2.765625 1.109375 -4.703125 C 1.085938 -4.847656 1.066406 -5.035156 1.046875 -5.265625 C 1.035156 -5.492188 1.03125 -5.769531 1.03125 -6.09375 C 1 -6.769531 1 -7.28125 1.03125 -7.625 C 1.226562 -9.695312 1.910156 -11.410156 3.078125 -12.765625 C 4.253906 -14.128906 5.867188 -14.984375 7.921875 -15.328125 Z M 11.390625 -3.828125 L 11.453125 -3.984375 L 13.75 -3.984375 C 15.257812 -4.015625 16.015625 -4.003906 16.015625 -3.953125 C 16.015625 -3.929688 15.992188 -3.769531 15.953125 -3.46875 C 15.804688 -2.625 15.539062 -1.875 15.15625 -1.21875 C 14.769531 -0.570312 14.289062 -0.0234375 13.71875 0.421875 C 13.15625 0.878906 12.507812 1.226562 11.78125 1.46875 C 11.050781 1.707031 10.265625 1.832031 9.421875 1.84375 L 8.9375 1.875 L 8.9375 -1.5 L 9.109375 -1.53125 C 9.691406 -1.601562 10.164062 -1.804688 10.53125 -2.140625 C 10.9375 -2.554688 11.222656 -3.117188 11.390625 -3.828125 Z M 11.390625 -3.828125 "/></g></g></g><g fill="#000000" fill-opacity="1"><g transform="translate(70.690364, 22.683648)"><g><path d="M 1.28125 -15.171875 C 1.6875 -15.171875 2.382812 -15.175781 3.375 -15.1875 C 4.226562 -15.1875 5.445312 -15.1875 7.03125 -15.1875 C 8.613281 -15.195312 10.703125 -15.203125 13.296875 -15.203125 L 13.296875 -11.71875 L 6.1875 -11.71875 L 6.1875 -1.78125 L 13.953125 -1.78125 L 13.953125 -1.671875 C 13.953125 -1.679688 13.9375 -1.632812 13.90625 -1.53125 C 13.882812 -1.4375 13.851562 -1.304688 13.8125 -1.140625 C 13.78125 -0.984375 13.742188 -0.800781 13.703125 -0.59375 C 13.671875 -0.394531 13.632812 -0.195312 13.59375 0 C 13.363281 1.0625 13.242188 1.609375 13.234375 1.640625 C 13.210938 1.679688 11.289062 1.703125 7.46875 1.703125 L 1.75 1.703125 L 1.75 -6.453125 C 1.75 -9.203125 1.742188 -11.238281 1.734375 -12.5625 C 1.734375 -13.894531 1.71875 -14.613281 1.6875 -14.71875 C 1.644531 -14.9375 1.507812 -15.085938 1.28125 -15.171875 Z M 6.9375 -8.59375 L 12.9375 -8.59375 L 12.9375 -5.15625 L 6.9375 -5.15625 Z M 6.9375 -8.59375 "/></g></g></g><g fill="#000000" fill-opacity="1"><g transform="translate(85.393262, 22.683648)"><g><path d="M 1.28125 -15.203125 L 6.234375 -15.203125 L 6.234375 1.703125 L 1.671875 1.703125 L 1.671875 -7.828125 C 1.671875 -9.597656 1.671875 -10.992188 1.671875 -12.015625 C 1.671875 -13.046875 1.660156 -13.710938 1.640625 -14.015625 C 1.628906 -14.597656 1.582031 -14.925781 1.5 -15 L 1.46875 -15.046875 C 1.4375 -15.078125 1.40625 -15.109375 1.375 -15.140625 C 1.34375 -15.171875 1.3125 -15.191406 1.28125 -15.203125 Z M 6.8125 -15.203125 L 7.578125 -15.203125 L 7.9375 -14.359375 C 8.019531 -14.203125 8.132812 -13.9375 8.28125 -13.5625 C 8.414062 -13.207031 8.503906 -12.984375 8.546875 -12.890625 C 8.804688 -12.273438 9.097656 -11.566406 9.421875 -10.765625 C 9.742188 -9.960938 10.097656 -9.050781 10.484375 -8.03125 C 11.273438 -6.007812 11.769531 -4.679688 11.96875 -4.046875 L 12.0625 -3.828125 L 12.078125 -5.125 L 12.078125 -10.625 C 12.046875 -13.457031 12.019531 -14.90625 12 -14.96875 C 11.945312 -15.039062 11.851562 -15.117188 11.71875 -15.203125 L 16.515625 -15.203125 L 16.515625 1.703125 L 10.75 1.703125 L 10.0625 -0.0625 C 9.53125 -1.394531 9.015625 -2.65625 8.515625 -3.84375 C 8.015625 -5.039062 7.53125 -6.179688 7.0625 -7.265625 L 6.8125 -7.859375 Z M 6.8125 -15.203125 "/></g></g></g><g fill="#000000" fill-opacity="1"><g transform="translate(103.580796, 22.683648)"><g><path d="M 0.453125 -15.203125 L 13.703125 -15.203125 L 13.703125 -11.765625 L 0.453125 -11.765625 Z M 4.640625 -10.984375 L 4.515625 -11.09375 L 9.375 -11.09375 L 9.375 1.703125 L 4.84375 1.703125 L 4.84375 -4.40625 C 4.84375 -6.507812 4.84375 -8.085938 4.84375 -9.140625 C 4.84375 -10.203125 4.832031 -10.75 4.8125 -10.78125 C 4.800781 -10.84375 4.742188 -10.910156 4.640625 -10.984375 Z M 4.640625 -10.984375 "/></g></g></g><g fill="#000000" fill-opacity="1"><g transform="translate(117.721661, 22.683648)"><g><path d="M 1.28125 -15.171875 C 1.6875 -15.171875 2.382812 -15.175781 3.375 -15.1875 C 4.226562 -15.1875 5.445312 -15.1875 7.03125 -15.1875 C 8.613281 -15.195312 10.703125 -15.203125 13.296875 -15.203125 L 13.296875 -11.71875 L 6.1875 -11.71875 L 6.1875 -1.78125 L 13.953125 -1.78125 L 13.953125 -1.671875 C 13.953125 -1.679688 13.9375 -1.632812 13.90625 -1.53125 C 13.882812 -1.4375 13.851562 -1.304688 13.8125 -1.140625 C 13.78125 -0.984375 13.742188 -0.800781 13.703125 -0.59375 C 13.671875 -0.394531 13.632812 -0.195312 13.59375 0 C 13.363281 1.0625 13.242188 1.609375 13.234375 1.640625 C 13.210938 1.679688 11.289062 1.703125 7.46875 1.703125 L 1.75 1.703125 L 1.75 -6.453125 C 1.75 -9.203125 1.742188 -11.238281 1.734375 -12.5625 C 1.734375 -13.894531 1.71875 -14.613281 1.6875 -14.71875 C 1.644531 -14.9375 1.507812 -15.085938 1.28125 -15.171875 Z M 6.9375 -8.59375 L 12.9375 -8.59375 L 12.9375 -5.15625 L 6.9375 -5.15625 Z M 6.9375 -8.59375 "/></g></g></g><g clip-path="url(#89f5a86205)"><g clip-path="url(#5dfceddbc4)"><g clip-path="url(#cbb42d5595)"><path fill="#000000" d="M 24.792969 0.527344 C 24.382812 0.664062 24.734375 2.746094 24.777344 2.996094 C 24.992188 4.289062 25.382812 5.320312 25.714844 6.042969 C 25.285156 6.484375 24.859375 6.925781 24.429688 7.367188 C 24.375 7.222656 24.320312 7.078125 24.265625 6.929688 C 24.160156 6.972656 24.007812 7.042969 23.851562 7.167969 C 23.667969 7.320312 23.558594 7.484375 23.5 7.59375 C 23.558594 7.726562 23.621094 7.863281 23.683594 8 C 22.960938 8.78125 22.234375 9.566406 21.511719 10.347656 C 21.511719 10.355469 21.507812 10.359375 21.507812 10.363281 C 21.523438 10.957031 21.652344 11.539062 21.738281 12.125 C 22.785156 11.1875 23.835938 10.246094 24.882812 9.308594 L 25.011719 9.566406 C 25.066406 9.519531 25.125 9.472656 25.179688 9.425781 C 25.164062 9.3125 25.144531 9.199219 25.128906 9.085938 C 25.503906 8.75 25.878906 8.414062 26.253906 8.078125 L 28.671875 13.710938 C 28.289062 14.136719 27.90625 14.5625 27.523438 14.988281 C 27.546875 15.421875 27.574219 15.855469 27.597656 16.289062 L 29.339844 14.773438 C 29.441406 14.9375 29.539062 15.101562 29.640625 15.269531 C 29.6875 15.25 29.734375 15.234375 29.785156 15.21875 C 29.777344 15.035156 29.765625 14.851562 29.757812 14.667969 C 30.46875 14.792969 31.179688 14.917969 31.890625 15.042969 C 31.691406 14.664062 31.496094 14.285156 31.300781 13.90625 C 30.726562 13.738281 30.152344 13.574219 29.578125 13.410156 L 28.136719 7.46875 L 29.484375 7.621094 L 29.613281 7.878906 L 29.75 7.882812 C 29.769531 7.832031 29.792969 7.78125 29.8125 7.730469 C 31.347656 7.96875 32.878906 8.207031 34.410156 8.449219 C 34.320312 8.246094 34.242188 8.085938 34.183594 7.976562 C 33.992188 7.621094 33.789062 7.273438 33.617188 6.90625 C 33.59375 6.855469 33.570312 6.804688 33.546875 6.753906 C 32.414062 6.464844 31.28125 6.179688 30.144531 5.894531 C 30.113281 5.746094 30.082031 5.601562 30.046875 5.457031 C 29.941406 5.398438 29.765625 5.324219 29.535156 5.296875 C 29.351562 5.277344 29.195312 5.296875 29.089844 5.320312 C 29.09375 5.472656 29.101562 5.625 29.109375 5.777344 C 28.53125 5.664062 27.953125 5.554688 27.375 5.441406 C 27.167969 4.585938 26.796875 3.425781 26.097656 2.164062 C 25.804688 1.636719 25.128906 0.417969 24.792969 0.527344 Z M 24.792969 0.527344 " fill-opacity="1" fill-rule="nonzero"/></g></g></g><g clip-path="url(#af6eebdcf0)"><g clip-path="url(#e63cd29c93)"><g clip-path="url(#68a7e62df6)"><path fill="#000000" d="M 38.859375 32.226562 C 40.566406 33.667969 42.863281 35.152344 45.136719 35.328125 C 46.160156 35.425781 47.285156 35.269531 48.101562 34.597656 C 48.902344 33.953125 49.3125 32.9375 49.390625 31.9375 C 49.09375 33.1875 48.347656 34.335938 47.050781 34.675781 C 46.449219 34.835938 45.820312 34.8125 45.207031 34.71875 C 42.863281 34.375 40.425781 32.496094 38.742188 30.890625 C 36.996094 29.214844 35.488281 27.304688 34.183594 25.265625 C 33.003906 23.417969 32.003906 21.46875 31.167969 19.4375 C 30.699219 18.304688 30.292969 17.144531 29.917969 15.976562 C 30.894531 22.066406 34.167969 28.195312 38.859375 32.226562 Z M 38.859375 32.226562 " fill-opacity="1" fill-rule="nonzero"/></g></g></g><g clip-path="url(#81d5e82751)"><path fill="#000000" d="M 67.800781 12.832031 L 102.246094 12.832031 L 102.246094 20.691406 L 67.800781 20.691406 Z M 67.800781 12.832031 " fill-opacity="1" fill-rule="nonzero"/></g><g fill="#000000" fill-opacity="1"><g transform="translate(68.73302, 30.367259)"><g><path d="M 3.421875 -3.484375 L 2.078125 -1.1875 L 2.078125 0 L 1.375 0 L 1.375 -1.1875 L 0.03125 -3.484375 L 0.84375 -3.484375 L 1.734375 -1.953125 L 2.609375 -3.484375 Z M 3.421875 -3.484375 "/></g></g></g><g fill="#000000" fill-opacity="1"><g transform="translate(72.181329, 30.367259)"><g><path d="M 2.859375 -1.140625 L 0.875 -1.140625 C 0.90625 -0.972656 0.988281 -0.832031 1.125 -0.71875 C 1.257812 -0.601562 1.429688 -0.546875 1.640625 -0.546875 C 1.773438 -0.546875 1.90625 -0.570312 2.03125 -0.625 C 2.15625 -0.6875 2.253906 -0.769531 2.328125 -0.875 L 2.765625 -0.515625 C 2.640625 -0.347656 2.472656 -0.210938 2.265625 -0.109375 C 2.054688 -0.00390625 1.820312 0.046875 1.5625 0.046875 C 1.289062 0.046875 1.050781 -0.015625 0.84375 -0.140625 C 0.632812 -0.265625 0.472656 -0.429688 0.359375 -0.640625 C 0.242188 -0.859375 0.1875 -1.09375 0.1875 -1.34375 C 0.1875 -1.601562 0.242188 -1.835938 0.359375 -2.046875 C 0.472656 -2.253906 0.632812 -2.421875 0.84375 -2.546875 C 1.050781 -2.671875 1.289062 -2.734375 1.5625 -2.734375 C 1.832031 -2.734375 2.0625 -2.671875 2.25 -2.546875 C 2.445312 -2.421875 2.597656 -2.25 2.703125 -2.03125 C 2.804688 -1.820312 2.859375 -1.578125 2.859375 -1.296875 C 2.859375 -1.273438 2.859375 -1.25 2.859375 -1.21875 C 2.859375 -1.195312 2.859375 -1.171875 2.859375 -1.140625 Z M 1.5625 -2.1875 C 1.375 -2.1875 1.21875 -2.125 1.09375 -2 C 0.976562 -1.882812 0.90625 -1.742188 0.875 -1.578125 L 2.203125 -1.578125 C 2.191406 -1.679688 2.164062 -1.78125 2.125 -1.875 C 2.082031 -1.96875 2.015625 -2.039062 1.921875 -2.09375 C 1.828125 -2.15625 1.707031 -2.1875 1.5625 -2.1875 Z M 1.5625 -2.1875 "/></g></g></g><g fill="#000000" fill-opacity="1"><g transform="translate(75.215249, 30.367259)"><g><path d="M 1.71875 -2.734375 C 2.101562 -2.734375 2.390625 -2.632812 2.578125 -2.4375 C 2.765625 -2.238281 2.859375 -1.925781 2.859375 -1.5 L 2.859375 0 L 2.171875 0 L 2.171875 -1.5 C 2.171875 -1.90625 1.976562 -2.109375 1.59375 -2.109375 C 1.46875 -2.109375 1.351562 -2.085938 1.25 -2.046875 C 1.15625 -2.015625 1.070312 -1.96875 1 -1.90625 L 1 0 L 0.3125 0 L 0.3125 -2.6875 L 1 -2.6875 L 1 -2.515625 C 1.09375 -2.578125 1.203125 -2.628906 1.328125 -2.671875 C 1.453125 -2.710938 1.582031 -2.734375 1.71875 -2.734375 Z M 1.71875 -2.734375 "/></g></g></g><g fill="#000000" fill-opacity="1"><g transform="translate(78.352766, 30.367259)"><g><path d="M 0.671875 -2.96875 C 0.554688 -2.96875 0.457031 -3.003906 0.375 -3.078125 C 0.300781 -3.160156 0.265625 -3.257812 0.265625 -3.375 C 0.265625 -3.488281 0.300781 -3.582031 0.375 -3.65625 C 0.457031 -3.738281 0.554688 -3.78125 0.671875 -3.78125 C 0.773438 -3.78125 0.863281 -3.738281 0.9375 -3.65625 C 1.019531 -3.582031 1.0625 -3.488281 1.0625 -3.375 C 1.0625 -3.257812 1.019531 -3.160156 0.9375 -3.078125 C 0.863281 -3.003906 0.773438 -2.96875 0.671875 -2.96875 Z M 0.328125 -2.6875 L 1.015625 -2.6875 L 1.015625 0 L 0.328125 0 Z M 0.328125 -2.6875 "/></g></g></g><g fill="#000000" fill-opacity="1"><g transform="translate(79.695007, 30.367259)"><g/></g></g><g fill="#000000" fill-opacity="1"><g transform="translate(80.286992, 30.367259)"><g/></g></g><g fill="#000000" fill-opacity="1"><g transform="translate(80.881896, 30.367259)"><g><path d="M 3.484375 -3.484375 L 3.484375 0 L 3.140625 0 L 1.0625 -2.1875 L 1.0625 0 L 0.359375 0 L 0.359375 -3.484375 L 0.703125 -3.484375 L 2.78125 -1.28125 L 2.78125 -3.484375 Z M 3.484375 -3.484375 "/></g></g></g><g fill="#000000" fill-opacity="1"><g transform="translate(84.729796, 30.367259)"><g><path d="M 2.859375 -1.140625 L 0.875 -1.140625 C 0.90625 -0.972656 0.988281 -0.832031 1.125 -0.71875 C 1.257812 -0.601562 1.429688 -0.546875 1.640625 -0.546875 C 1.773438 -0.546875 1.90625 -0.570312 2.03125 -0.625 C 2.15625 -0.6875 2.253906 -0.769531 2.328125 -0.875 L 2.765625 -0.515625 C 2.640625 -0.347656 2.472656 -0.210938 2.265625 -0.109375 C 2.054688 -0.00390625 1.820312 0.046875 1.5625 0.046875 C 1.289062 0.046875 1.050781 -0.015625 0.84375 -0.140625 C 0.632812 -0.265625 0.472656 -0.429688 0.359375 -0.640625 C 0.242188 -0.859375 0.1875 -1.09375 0.1875 -1.34375 C 0.1875 -1.601562 0.242188 -1.835938 0.359375 -2.046875 C 0.472656 -2.253906 0.632812 -2.421875 0.84375 -2.546875 C 1.050781 -2.671875 1.289062 -2.734375 1.5625 -2.734375 C 1.832031 -2.734375 2.0625 -2.671875 2.25 -2.546875 C 2.445312 -2.421875 2.597656 -2.25 2.703125 -2.03125 C 2.804688 -1.820312 2.859375 -1.578125 2.859375 -1.296875 C 2.859375 -1.273438 2.859375 -1.25 2.859375 -1.21875 C 2.859375 -1.195312 2.859375 -1.171875 2.859375 -1.140625 Z M 1.5625 -2.1875 C 1.375 -2.1875 1.21875 -2.125 1.09375 -2 C 0.976562 -1.882812 0.90625 -1.742188 0.875 -1.578125 L 2.203125 -1.578125 C 2.191406 -1.679688 2.164062 -1.78125 2.125 -1.875 C 2.082031 -1.96875 2.015625 -2.039062 1.921875 -2.09375 C 1.828125 -2.15625 1.707031 -2.1875 1.5625 -2.1875 Z M 1.5625 -2.1875 "/></g></g></g><g fill="#000000" fill-opacity="1"><g transform="translate(87.763716, 30.367259)"><g><path d="M 0.15625 -0.21875 L 0.421875 -0.71875 C 0.585938 -0.644531 0.738281 -0.59375 0.875 -0.5625 C 1.019531 -0.53125 1.175781 -0.515625 1.34375 -0.515625 C 1.5 -0.515625 1.609375 -0.535156 1.671875 -0.578125 C 1.742188 -0.628906 1.78125 -0.691406 1.78125 -0.765625 C 1.78125 -0.835938 1.734375 -0.894531 1.640625 -0.9375 C 1.554688 -0.988281 1.410156 -1.035156 1.203125 -1.078125 C 1.015625 -1.117188 0.84375 -1.171875 0.6875 -1.234375 C 0.539062 -1.296875 0.425781 -1.378906 0.34375 -1.484375 C 0.257812 -1.597656 0.21875 -1.738281 0.21875 -1.90625 C 0.21875 -2.15625 0.304688 -2.351562 0.484375 -2.5 C 0.671875 -2.65625 0.921875 -2.734375 1.234375 -2.734375 C 1.441406 -2.734375 1.628906 -2.710938 1.796875 -2.671875 C 1.972656 -2.628906 2.132812 -2.578125 2.28125 -2.515625 L 2.046875 -2.015625 C 1.921875 -2.054688 1.785156 -2.09375 1.640625 -2.125 C 1.492188 -2.164062 1.351562 -2.1875 1.21875 -2.1875 C 1.082031 -2.1875 0.984375 -2.160156 0.921875 -2.109375 C 0.859375 -2.066406 0.828125 -2.015625 0.828125 -1.953125 C 0.828125 -1.878906 0.867188 -1.816406 0.953125 -1.765625 C 1.046875 -1.722656 1.203125 -1.679688 1.421875 -1.640625 C 1.734375 -1.578125 1.972656 -1.484375 2.140625 -1.359375 C 2.316406 -1.234375 2.40625 -1.050781 2.40625 -0.8125 C 2.40625 -0.550781 2.3125 -0.34375 2.125 -0.1875 C 1.9375 -0.03125 1.671875 0.046875 1.328125 0.046875 C 1.097656 0.046875 0.894531 0.0234375 0.71875 -0.015625 C 0.539062 -0.0546875 0.351562 -0.125 0.15625 -0.21875 Z M 0.15625 -0.21875 "/></g></g></g><g fill="#000000" fill-opacity="1"><g transform="translate(90.333915, 30.367259)"><g><path d="M 0.671875 -2.96875 C 0.554688 -2.96875 0.457031 -3.003906 0.375 -3.078125 C 0.300781 -3.160156 0.265625 -3.257812 0.265625 -3.375 C 0.265625 -3.488281 0.300781 -3.582031 0.375 -3.65625 C 0.457031 -3.738281 0.554688 -3.78125 0.671875 -3.78125 C 0.773438 -3.78125 0.863281 -3.738281 0.9375 -3.65625 C 1.019531 -3.582031 1.0625 -3.488281 1.0625 -3.375 C 1.0625 -3.257812 1.019531 -3.160156 0.9375 -3.078125 C 0.863281 -3.003906 0.773438 -2.96875 0.671875 -2.96875 Z M 0.328125 -2.6875 L 1.015625 -2.6875 L 1.015625 0 L 0.328125 0 Z M 0.328125 -2.6875 "/></g></g></g><g fill="#000000" fill-opacity="1"><g transform="translate(91.675748, 30.367259)"><g><path d="M 0.328125 -3.71875 L 1.015625 -3.71875 L 1.015625 0 L 0.328125 0 Z M 0.328125 -3.71875 "/></g></g></g><g fill="#000000" fill-opacity="1"><g transform="translate(93.015555, 30.367259)"><g/></g></g><g fill="#000000" fill-opacity="1"><g transform="translate(93.60754, 30.367259)"><g/></g></g><g fill="#000000" fill-opacity="1"><g transform="translate(94.202444, 30.367259)"><g><path d="M 2.671875 -0.703125 L 1.109375 -0.703125 L 0.8125 0 L 0.0625 0 L 1.71875 -3.484375 L 2.0625 -3.484375 L 3.734375 0 L 2.984375 0 Z M 1.375 -1.296875 L 2.421875 -1.296875 L 1.890625 -2.4375 Z M 1.375 -1.296875 "/></g></g></g><g fill="#000000" fill-opacity="1"><g transform="translate(97.991145, 30.367259)"><g><path d="M 2.25 -0.90625 L 2.6875 -0.5 C 2.5625 -0.332031 2.40625 -0.195312 2.21875 -0.09375 C 2.039062 0 1.847656 0.046875 1.640625 0.046875 C 1.441406 0.046875 1.253906 0.0078125 1.078125 -0.0625 C 0.898438 -0.132812 0.742188 -0.234375 0.609375 -0.359375 C 0.472656 -0.484375 0.363281 -0.628906 0.28125 -0.796875 C 0.207031 -0.972656 0.171875 -1.15625 0.171875 -1.34375 C 0.171875 -1.539062 0.207031 -1.722656 0.28125 -1.890625 C 0.363281 -2.054688 0.472656 -2.203125 0.609375 -2.328125 C 0.742188 -2.453125 0.898438 -2.550781 1.078125 -2.625 C 1.253906 -2.695312 1.441406 -2.734375 1.640625 -2.734375 C 1.859375 -2.734375 2.054688 -2.679688 2.234375 -2.578125 C 2.421875 -2.484375 2.570312 -2.359375 2.6875 -2.203125 L 2.25 -1.78125 C 2.175781 -1.882812 2.085938 -1.960938 1.984375 -2.015625 C 1.878906 -2.078125 1.765625 -2.109375 1.640625 -2.109375 C 1.492188 -2.109375 1.359375 -2.070312 1.234375 -2 C 1.117188 -1.9375 1.023438 -1.847656 0.953125 -1.734375 C 0.890625 -1.617188 0.859375 -1.488281 0.859375 -1.34375 C 0.859375 -1.207031 0.890625 -1.078125 0.953125 -0.953125 C 1.023438 -0.835938 1.117188 -0.742188 1.234375 -0.671875 C 1.359375 -0.609375 1.492188 -0.578125 1.640625 -0.578125 C 1.765625 -0.578125 1.878906 -0.601562 1.984375 -0.65625 C 2.085938 -0.71875 2.175781 -0.800781 2.25 -0.90625 Z M 2.25 -0.90625 "/></g></g></g><g fill="#000000" fill-opacity="1"><g transform="translate(100.832671, 30.367259)"><g><path d="M 2.859375 -1.140625 L 0.875 -1.140625 C 0.90625 -0.972656 0.988281 -0.832031 1.125 -0.71875 C 1.257812 -0.601562 1.429688 -0.546875 1.640625 -0.546875 C 1.773438 -0.546875 1.90625 -0.570312 2.03125 -0.625 C 2.15625 -0.6875 2.253906 -0.769531 2.328125 -0.875 L 2.765625 -0.515625 C 2.640625 -0.347656 2.472656 -0.210938 2.265625 -0.109375 C 2.054688 -0.00390625 1.820312 0.046875 1.5625 0.046875 C 1.289062 0.046875 1.050781 -0.015625 0.84375 -0.140625 C 0.632812 -0.265625 0.472656 -0.429688 0.359375 -0.640625 C 0.242188 -0.859375 0.1875 -1.09375 0.1875 -1.34375 C 0.1875 -1.601562 0.242188 -1.835938 0.359375 -2.046875 C 0.472656 -2.253906 0.632812 -2.421875 0.84375 -2.546875 C 1.050781 -2.671875 1.289062 -2.734375 1.5625 -2.734375 C 1.832031 -2.734375 2.0625 -2.671875 2.25 -2.546875 C 2.445312 -2.421875 2.597656 -2.25 2.703125 -2.03125 C 2.804688 -1.820312 2.859375 -1.578125 2.859375 -1.296875 C 2.859375 -1.273438 2.859375 -1.25 2.859375 -1.21875 C 2.859375 -1.195312 2.859375 -1.171875 2.859375 -1.140625 Z M 1.5625 -2.1875 C 1.375 -2.1875 1.21875 -2.125 1.09375 -2 C 0.976562 -1.882812 0.90625 -1.742188 0.875 -1.578125 L 2.203125 -1.578125 C 2.191406 -1.679688 2.164062 -1.78125 2.125 -1.875 C 2.082031 -1.96875 2.015625 -2.039062 1.921875 -2.09375 C 1.828125 -2.15625 1.707031 -2.1875 1.5625 -2.1875 Z M 1.5625 -2.1875 "/></g></g></g><g fill="#000000" fill-opacity="1"><g transform="translate(103.866591, 30.367259)"><g><path d="M 1.71875 -2.734375 C 2.101562 -2.734375 2.390625 -2.632812 2.578125 -2.4375 C 2.765625 -2.238281 2.859375 -1.925781 2.859375 -1.5 L 2.859375 0 L 2.171875 0 L 2.171875 -1.5 C 2.171875 -1.90625 1.976562 -2.109375 1.59375 -2.109375 C 1.46875 -2.109375 1.351562 -2.085938 1.25 -2.046875 C 1.15625 -2.015625 1.070312 -1.96875 1 -1.90625 L 1 0 L 0.3125 0 L 0.3125 -2.6875 L 1 -2.6875 L 1 -2.515625 C 1.09375 -2.578125 1.203125 -2.628906 1.328125 -2.671875 C 1.453125 -2.710938 1.582031 -2.734375 1.71875 -2.734375 Z M 1.71875 -2.734375 "/></g></g></g><g fill="#000000" fill-opacity="1"><g transform="translate(107.004108, 30.367259)"><g><path d="M 1.171875 -2.109375 L 1.171875 -1.171875 C 1.171875 -1.003906 1.179688 -0.875 1.203125 -0.78125 C 1.234375 -0.695312 1.273438 -0.632812 1.328125 -0.59375 C 1.390625 -0.5625 1.476562 -0.546875 1.59375 -0.546875 C 1.65625 -0.546875 1.710938 -0.546875 1.765625 -0.546875 C 1.816406 -0.554688 1.867188 -0.566406 1.921875 -0.578125 L 1.921875 -0.0625 C 1.898438 -0.0507812 1.835938 -0.03125 1.734375 0 C 1.628906 0.03125 1.484375 0.046875 1.296875 0.046875 C 1.148438 0.046875 1.015625 0.015625 0.890625 -0.046875 C 0.765625 -0.109375 0.664062 -0.203125 0.59375 -0.328125 C 0.519531 -0.453125 0.484375 -0.613281 0.484375 -0.8125 L 0.484375 -2.109375 L 0.109375 -2.109375 L 0.109375 -2.6875 L 0.484375 -2.6875 L 0.484375 -3.71875 L 1.171875 -3.71875 L 1.171875 -2.6875 L 1.921875 -2.6875 L 1.921875 -2.109375 Z M 1.171875 -2.109375 "/></g></g></g><g fill="#000000" fill-opacity="1"><g transform="translate(109.061255, 30.367259)"><g><path d="M 2.859375 -1.140625 L 0.875 -1.140625 C 0.90625 -0.972656 0.988281 -0.832031 1.125 -0.71875 C 1.257812 -0.601562 1.429688 -0.546875 1.640625 -0.546875 C 1.773438 -0.546875 1.90625 -0.570312 2.03125 -0.625 C 2.15625 -0.6875 2.253906 -0.769531 2.328125 -0.875 L 2.765625 -0.515625 C 2.640625 -0.347656 2.472656 -0.210938 2.265625 -0.109375 C 2.054688 -0.00390625 1.820312 0.046875 1.5625 0.046875 C 1.289062 0.046875 1.050781 -0.015625 0.84375 -0.140625 C 0.632812 -0.265625 0.472656 -0.429688 0.359375 -0.640625 C 0.242188 -0.859375 0.1875 -1.09375 0.1875 -1.34375 C 0.1875 -1.601562 0.242188 -1.835938 0.359375 -2.046875 C 0.472656 -2.253906 0.632812 -2.421875 0.84375 -2.546875 C 1.050781 -2.671875 1.289062 -2.734375 1.5625 -2.734375 C 1.832031 -2.734375 2.0625 -2.671875 2.25 -2.546875 C 2.445312 -2.421875 2.597656 -2.25 2.703125 -2.03125 C 2.804688 -1.820312 2.859375 -1.578125 2.859375 -1.296875 C 2.859375 -1.273438 2.859375 -1.25 2.859375 -1.21875 C 2.859375 -1.195312 2.859375 -1.171875 2.859375 -1.140625 Z M 1.5625 -2.1875 C 1.375 -2.1875 1.21875 -2.125 1.09375 -2 C 0.976562 -1.882812 0.90625 -1.742188 0.875 -1.578125 L 2.203125 -1.578125 C 2.191406 -1.679688 2.164062 -1.78125 2.125 -1.875 C 2.082031 -1.96875 2.015625 -2.039062 1.921875 -2.09375 C 1.828125 -2.15625 1.707031 -2.1875 1.5625 -2.1875 Z M 1.5625 -2.1875 "/></g></g></g><g fill="#000000" fill-opacity="1"><g transform="translate(112.095175, 30.367259)"><g/></g></g><g fill="#000000" fill-opacity="1"><g transform="translate(112.68716, 30.367259)"><g><path d="M 1.734375 -2.0625 C 1.984375 -2.007812 2.203125 -1.941406 2.390625 -1.859375 C 2.578125 -1.773438 2.722656 -1.664062 2.828125 -1.53125 C 2.929688 -1.40625 2.984375 -1.234375 2.984375 -1.015625 C 2.984375 -0.796875 2.925781 -0.601562 2.8125 -0.4375 C 2.707031 -0.28125 2.550781 -0.160156 2.34375 -0.078125 C 2.144531 0.00390625 1.910156 0.046875 1.640625 0.046875 C 1.441406 0.046875 1.269531 0.0351562 1.125 0.015625 C 0.976562 0.00390625 0.832031 -0.0195312 0.6875 -0.0625 C 0.539062 -0.113281 0.378906 -0.1875 0.203125 -0.28125 L 0.453125 -0.828125 C 0.609375 -0.753906 0.75 -0.695312 0.875 -0.65625 C 1.007812 -0.625 1.140625 -0.597656 1.265625 -0.578125 C 1.390625 -0.566406 1.523438 -0.5625 1.671875 -0.5625 C 1.859375 -0.5625 2.003906 -0.59375 2.109375 -0.65625 C 2.222656 -0.726562 2.28125 -0.832031 2.28125 -0.96875 C 2.28125 -1.082031 2.21875 -1.171875 2.09375 -1.234375 C 1.976562 -1.296875 1.789062 -1.359375 1.53125 -1.421875 C 1.300781 -1.472656 1.085938 -1.535156 0.890625 -1.609375 C 0.691406 -1.691406 0.53125 -1.800781 0.40625 -1.9375 C 0.289062 -2.070312 0.234375 -2.25 0.234375 -2.46875 C 0.234375 -2.675781 0.285156 -2.859375 0.390625 -3.015625 C 0.492188 -3.171875 0.640625 -3.289062 0.828125 -3.375 C 1.023438 -3.46875 1.257812 -3.515625 1.53125 -3.515625 C 1.789062 -3.515625 2.035156 -3.488281 2.265625 -3.4375 C 2.492188 -3.382812 2.691406 -3.316406 2.859375 -3.234375 L 2.578125 -2.671875 C 2.421875 -2.742188 2.242188 -2.800781 2.046875 -2.84375 C 1.847656 -2.882812 1.671875 -2.90625 1.515625 -2.90625 C 1.335938 -2.90625 1.195312 -2.867188 1.09375 -2.796875 C 1 -2.734375 0.953125 -2.644531 0.953125 -2.53125 C 0.953125 -2.40625 1.015625 -2.3125 1.140625 -2.25 C 1.273438 -2.1875 1.472656 -2.125 1.734375 -2.0625 Z M 1.734375 -2.0625 "/></g></g></g><g fill="#000000" fill-opacity="1"><g transform="translate(115.874009, 30.367259)"><g><path d="M 0.671875 -2.96875 C 0.554688 -2.96875 0.457031 -3.003906 0.375 -3.078125 C 0.300781 -3.160156 0.265625 -3.257812 0.265625 -3.375 C 0.265625 -3.488281 0.300781 -3.582031 0.375 -3.65625 C 0.457031 -3.738281 0.554688 -3.78125 0.671875 -3.78125 C 0.773438 -3.78125 0.863281 -3.738281 0.9375 -3.65625 C 1.019531 -3.582031 1.0625 -3.488281 1.0625 -3.375 C 1.0625 -3.257812 1.019531 -3.160156 0.9375 -3.078125 C 0.863281 -3.003906 0.773438 -2.96875 0.671875 -2.96875 Z M 0.328125 -2.6875 L 1.015625 -2.6875 L 1.015625 0 L 0.328125 0 Z M 0.328125 -2.6875 "/></g></g></g><g fill="#000000" fill-opacity="1"><g transform="translate(117.215842, 30.367259)"><g><path d="M 0.15625 -0.21875 L 0.421875 -0.71875 C 0.585938 -0.644531 0.738281 -0.59375 0.875 -0.5625 C 1.019531 -0.53125 1.175781 -0.515625 1.34375 -0.515625 C 1.5 -0.515625 1.609375 -0.535156 1.671875 -0.578125 C 1.742188 -0.628906 1.78125 -0.691406 1.78125 -0.765625 C 1.78125 -0.835938 1.734375 -0.894531 1.640625 -0.9375 C 1.554688 -0.988281 1.410156 -1.035156 1.203125 -1.078125 C 1.015625 -1.117188 0.84375 -1.171875 0.6875 -1.234375 C 0.539062 -1.296875 0.425781 -1.378906 0.34375 -1.484375 C 0.257812 -1.597656 0.21875 -1.738281 0.21875 -1.90625 C 0.21875 -2.15625 0.304688 -2.351562 0.484375 -2.5 C 0.671875 -2.65625 0.921875 -2.734375 1.234375 -2.734375 C 1.441406 -2.734375 1.628906 -2.710938 1.796875 -2.671875 C 1.972656 -2.628906 2.132812 -2.578125 2.28125 -2.515625 L 2.046875 -2.015625 C 1.921875 -2.054688 1.785156 -2.09375 1.640625 -2.125 C 1.492188 -2.164062 1.351562 -2.1875 1.21875 -2.1875 C 1.082031 -2.1875 0.984375 -2.160156 0.921875 -2.109375 C 0.859375 -2.066406 0.828125 -2.015625 0.828125 -1.953125 C 0.828125 -1.878906 0.867188 -1.816406 0.953125 -1.765625 C 1.046875 -1.722656 1.203125 -1.679688 1.421875 -1.640625 C 1.734375 -1.578125 1.972656 -1.484375 2.140625 -1.359375 C 2.316406 -1.234375 2.40625 -1.050781 2.40625 -0.8125 C 2.40625 -0.550781 2.3125 -0.34375 2.125 -0.1875 C 1.9375 -0.03125 1.671875 0.046875 1.328125 0.046875 C 1.097656 0.046875 0.894531 0.0234375 0.71875 -0.015625 C 0.539062 -0.0546875 0.351562 -0.125 0.15625 -0.21875 Z M 0.15625 -0.21875 "/></g></g></g><g fill="#000000" fill-opacity="1"><g transform="translate(119.786042, 30.367259)"><g><path d="M 1.171875 -2.109375 L 1.171875 -1.171875 C 1.171875 -1.003906 1.179688 -0.875 1.203125 -0.78125 C 1.234375 -0.695312 1.273438 -0.632812 1.328125 -0.59375 C 1.390625 -0.5625 1.476562 -0.546875 1.59375 -0.546875 C 1.65625 -0.546875 1.710938 -0.546875 1.765625 -0.546875 C 1.816406 -0.554688 1.867188 -0.566406 1.921875 -0.578125 L 1.921875 -0.0625 C 1.898438 -0.0507812 1.835938 -0.03125 1.734375 0 C 1.628906 0.03125 1.484375 0.046875 1.296875 0.046875 C 1.148438 0.046875 1.015625 0.015625 0.890625 -0.046875 C 0.765625 -0.109375 0.664062 -0.203125 0.59375 -0.328125 C 0.519531 -0.453125 0.484375 -0.613281 0.484375 -0.8125 L 0.484375 -2.109375 L 0.109375 -2.109375 L 0.109375 -2.6875 L 0.484375 -2.6875 L 0.484375 -3.71875 L 1.171875 -3.71875 L 1.171875 -2.6875 L 1.921875 -2.6875 L 1.921875 -2.109375 Z M 1.171875 -2.109375 "/></g></g></g><g fill="#000000" fill-opacity="1"><g transform="translate(121.843188, 30.367259)"><g><path d="M 2.859375 -1.140625 L 0.875 -1.140625 C 0.90625 -0.972656 0.988281 -0.832031 1.125 -0.71875 C 1.257812 -0.601562 1.429688 -0.546875 1.640625 -0.546875 C 1.773438 -0.546875 1.90625 -0.570312 2.03125 -0.625 C 2.15625 -0.6875 2.253906 -0.769531 2.328125 -0.875 L 2.765625 -0.515625 C 2.640625 -0.347656 2.472656 -0.210938 2.265625 -0.109375 C 2.054688 -0.00390625 1.820312 0.046875 1.5625 0.046875 C 1.289062 0.046875 1.050781 -0.015625 0.84375 -0.140625 C 0.632812 -0.265625 0.472656 -0.429688 0.359375 -0.640625 C 0.242188 -0.859375 0.1875 -1.09375 0.1875 -1.34375 C 0.1875 -1.601562 0.242188 -1.835938 0.359375 -2.046875 C 0.472656 -2.253906 0.632812 -2.421875 0.84375 -2.546875 C 1.050781 -2.671875 1.289062 -2.734375 1.5625 -2.734375 C 1.832031 -2.734375 2.0625 -2.671875 2.25 -2.546875 C 2.445312 -2.421875 2.597656 -2.25 2.703125 -2.03125 C 2.804688 -1.820312 2.859375 -1.578125 2.859375 -1.296875 C 2.859375 -1.273438 2.859375 -1.25 2.859375 -1.21875 C 2.859375 -1.195312 2.859375 -1.171875 2.859375 -1.140625 Z M 1.5625 -2.1875 C 1.375 -2.1875 1.21875 -2.125 1.09375 -2 C 0.976562 -1.882812 0.90625 -1.742188 0.875 -1.578125 L 2.203125 -1.578125 C 2.191406 -1.679688 2.164062 -1.78125 2.125 -1.875 C 2.082031 -1.96875 2.015625 -2.039062 1.921875 -2.09375 C 1.828125 -2.15625 1.707031 -2.1875 1.5625 -2.1875 Z M 1.5625 -2.1875 "/></g></g></g><g fill="#000000" fill-opacity="1"><g transform="translate(124.877108, 30.367259)"><g><path d="M 3.421875 -2.734375 C 3.816406 -2.734375 4.109375 -2.632812 4.296875 -2.4375 C 4.484375 -2.238281 4.578125 -1.925781 4.578125 -1.5 L 4.578125 0 L 3.890625 0 L 3.890625 -1.5 C 3.890625 -1.707031 3.835938 -1.859375 3.734375 -1.953125 C 3.640625 -2.054688 3.5 -2.109375 3.3125 -2.109375 C 3.195312 -2.109375 3.097656 -2.085938 3.015625 -2.046875 C 2.929688 -2.015625 2.851562 -1.96875 2.78125 -1.90625 C 2.789062 -1.863281 2.796875 -1.8125 2.796875 -1.75 C 2.796875 -1.695312 2.796875 -1.609375 2.796875 -1.484375 L 2.796875 0 L 2.125 0 L 2.125 -1.5 C 2.125 -1.90625 1.941406 -2.109375 1.578125 -2.109375 C 1.453125 -2.109375 1.34375 -2.085938 1.25 -2.046875 C 1.15625 -2.015625 1.070312 -1.96875 1 -1.90625 L 1 0 L 0.3125 0 L 0.3125 -2.6875 L 1 -2.6875 L 1 -2.515625 C 1.195312 -2.660156 1.429688 -2.734375 1.703125 -2.734375 C 1.910156 -2.734375 2.085938 -2.703125 2.234375 -2.640625 C 2.378906 -2.585938 2.5 -2.503906 2.59375 -2.390625 C 2.707031 -2.492188 2.832031 -2.578125 2.96875 -2.640625 C 3.113281 -2.703125 3.265625 -2.734375 3.421875 -2.734375 Z M 3.421875 -2.734375 "/></g></g></g><g fill="#000000" fill-opacity="1"><g transform="translate(129.716582, 30.367259)"><g><path d="M 0.671875 -2.96875 C 0.554688 -2.96875 0.457031 -3.003906 0.375 -3.078125 C 0.300781 -3.160156 0.265625 -3.257812 0.265625 -3.375 C 0.265625 -3.488281 0.300781 -3.582031 0.375 -3.65625 C 0.457031 -3.738281 0.554688 -3.78125 0.671875 -3.78125 C 0.773438 -3.78125 0.863281 -3.738281 0.9375 -3.65625 C 1.019531 -3.582031 1.0625 -3.488281 1.0625 -3.375 C 1.0625 -3.257812 1.019531 -3.160156 0.9375 -3.078125 C 0.863281 -3.003906 0.773438 -2.96875 0.671875 -2.96875 Z M 0.328125 -2.6875 L 1.015625 -2.6875 L 1.015625 0 L 0.328125 0 Z M 0.328125 -2.6875 "/></g></g></g><g fill="#ffffff" fill-opacity="1"><g transform="translate(73.762375, 19.003326)"><g><path d="M 3.671875 -3.765625 C 3.671875 -3.628906 3.640625 -3.492188 3.578125 -3.359375 C 3.515625 -3.222656 3.425781 -3.117188 3.3125 -3.046875 C 3.570312 -3.015625 3.800781 -2.925781 4 -2.78125 C 4.195312 -2.632812 4.347656 -2.453125 4.453125 -2.234375 C 4.566406 -2.015625 4.625 -1.78125 4.625 -1.53125 C 4.625 -1.257812 4.566406 -1.007812 4.453125 -0.78125 C 4.335938 -0.550781 4.171875 -0.363281 3.953125 -0.21875 C 3.742188 -0.0703125 3.476562 0 3.15625 0 L 0.5 0 L 0.5 -4.828125 L 2.625 -4.828125 C 2.820312 -4.828125 3 -4.78125 3.15625 -4.6875 C 3.3125 -4.59375 3.4375 -4.460938 3.53125 -4.296875 C 3.625 -4.140625 3.671875 -3.960938 3.671875 -3.765625 Z M 1.453125 -3.140625 L 2.34375 -3.140625 C 2.507812 -3.140625 2.625 -3.1875 2.6875 -3.28125 C 2.757812 -3.375 2.796875 -3.46875 2.796875 -3.5625 C 2.796875 -3.6875 2.75 -3.785156 2.65625 -3.859375 C 2.570312 -3.941406 2.441406 -3.984375 2.265625 -3.984375 L 1.453125 -3.984375 Z M 1.46875 -0.84375 L 2.625 -0.84375 C 2.96875 -0.84375 3.210938 -0.914062 3.359375 -1.0625 C 3.515625 -1.21875 3.59375 -1.40625 3.59375 -1.625 C 3.59375 -1.757812 3.554688 -1.882812 3.484375 -2 C 3.421875 -2.125 3.316406 -2.222656 3.171875 -2.296875 C 3.035156 -2.378906 2.859375 -2.421875 2.640625 -2.421875 L 1.46875 -2.421875 Z M 1.46875 -0.84375 "/></g></g></g><g fill="#ffffff" fill-opacity="1"><g transform="translate(82.771122, 19.003326)"><g><path d="M 4.34375 -0.84375 L 4.34375 0 L 0.34375 0 L 0.34375 -0.84375 C 0.34375 -0.84375 0.410156 -0.867188 0.546875 -0.921875 C 0.679688 -0.972656 0.851562 -1.046875 1.0625 -1.140625 C 1.269531 -1.234375 1.492188 -1.34375 1.734375 -1.46875 C 1.972656 -1.59375 2.195312 -1.734375 2.40625 -1.890625 C 2.613281 -2.054688 2.785156 -2.234375 2.921875 -2.421875 C 3.054688 -2.609375 3.125 -2.804688 3.125 -3.015625 C 3.125 -3.203125 3.082031 -3.363281 3 -3.5 C 2.914062 -3.644531 2.800781 -3.757812 2.65625 -3.84375 C 2.507812 -3.9375 2.347656 -3.984375 2.171875 -3.984375 C 2.035156 -3.984375 1.890625 -3.945312 1.734375 -3.875 C 1.585938 -3.8125 1.46875 -3.707031 1.375 -3.5625 C 1.28125 -3.425781 1.234375 -3.25 1.234375 -3.03125 L 1.234375 -2.984375 L 0.34375 -2.984375 L 0.34375 -3.09375 C 0.34375 -3.4375 0.425781 -3.742188 0.59375 -4.015625 C 0.757812 -4.285156 0.984375 -4.5 1.265625 -4.65625 C 1.546875 -4.8125 1.851562 -4.890625 2.1875 -4.890625 C 2.4375 -4.890625 2.671875 -4.84375 2.890625 -4.75 C 3.117188 -4.65625 3.320312 -4.523438 3.5 -4.359375 C 3.675781 -4.203125 3.8125 -4.015625 3.90625 -3.796875 C 4.007812 -3.578125 4.0625 -3.335938 4.0625 -3.078125 C 4.0625 -2.828125 4.015625 -2.597656 3.921875 -2.390625 C 3.828125 -2.179688 3.703125 -1.992188 3.546875 -1.828125 C 3.398438 -1.660156 3.242188 -1.515625 3.078125 -1.390625 C 2.910156 -1.265625 2.753906 -1.160156 2.609375 -1.078125 C 2.460938 -1.003906 2.34375 -0.945312 2.25 -0.90625 C 2.15625 -0.863281 2.109375 -0.84375 2.109375 -0.84375 Z M 4.34375 -0.84375 "/></g></g></g><g fill="#ffffff" fill-opacity="1"><g transform="translate(91.409643, 19.003326)"><g><path d="M 3.671875 -3.765625 C 3.671875 -3.628906 3.640625 -3.492188 3.578125 -3.359375 C 3.515625 -3.222656 3.425781 -3.117188 3.3125 -3.046875 C 3.570312 -3.015625 3.800781 -2.925781 4 -2.78125 C 4.195312 -2.632812 4.347656 -2.453125 4.453125 -2.234375 C 4.566406 -2.015625 4.625 -1.78125 4.625 -1.53125 C 4.625 -1.257812 4.566406 -1.007812 4.453125 -0.78125 C 4.335938 -0.550781 4.171875 -0.363281 3.953125 -0.21875 C 3.742188 -0.0703125 3.476562 0 3.15625 0 L 0.5 0 L 0.5 -4.828125 L 2.625 -4.828125 C 2.820312 -4.828125 3 -4.78125 3.15625 -4.6875 C 3.3125 -4.59375 3.4375 -4.460938 3.53125 -4.296875 C 3.625 -4.140625 3.671875 -3.960938 3.671875 -3.765625 Z M 1.453125 -3.140625 L 2.34375 -3.140625 C 2.507812 -3.140625 2.625 -3.1875 2.6875 -3.28125 C 2.757812 -3.375 2.796875 -3.46875 2.796875 -3.5625 C 2.796875 -3.6875 2.75 -3.785156 2.65625 -3.859375 C 2.570312 -3.941406 2.441406 -3.984375 2.265625 -3.984375 L 1.453125 -3.984375 Z M 1.46875 -0.84375 L 2.625 -0.84375 C 2.96875 -0.84375 3.210938 -0.914062 3.359375 -1.0625 C 3.515625 -1.21875 3.59375 -1.40625 3.59375 -1.625 C 3.59375 -1.757812 3.554688 -1.882812 3.484375 -2 C 3.421875 -2.125 3.316406 -2.222656 3.171875 -2.296875 C 3.035156 -2.378906 2.859375 -2.421875 2.640625 -2.421875 L 1.46875 -2.421875 Z M 1.46875 -0.84375 "/></g></g></g></svg>